<?xml version="1.0" standalone="no"?>
<!DOCTYPE svg PUBLIC "-//W3C//DTD SVG 20010904//EN"
 "http://www.w3.org/TR/2001/REC-SVG-20010904/DTD/svg10.dtd">
<svg version="1.0" xmlns="http://www.w3.org/2000/svg"
 width="75.000000pt" height="102.000000pt" viewBox="0 0 75.000000 102.000000"
 preserveAspectRatio="xMidYMid meet">
<metadata>
Created by potrace 1.15, written by Peter Selinger 2001-2017
</metadata>
<g transform="translate(0.000000,102.000000) scale(0.100000,-0.100000)"
fill="#000000" stroke="none">
<path d="M366 994 c-4 -14 -19 -37 -33 -50 -26 -24 -26 -25 -7 -39 14 -10 16
-17 8 -25 -21 -21 -52 -1 -68 43 l-14 42 -1 -51 c-1 -55 -19 -76 -42 -48 -10
13 -10 17 1 24 19 12 -46 40 -90 40 l-31 0 39 -47 c42 -52 68 -106 58 -122 -4
-5 -38 -31 -76 -56 -81 -54 -96 -70 -55 -62 l29 5 -25 -19 c-13 -10 -32 -21
-41 -25 -15 -5 -18 -19 -18 -97 0 -76 4 -99 22 -135 13 -23 25 -42 28 -42 3 0
13 12 22 28 l17 27 1 -55 c0 -54 2 -57 55 -110 46 -45 57 -52 65 -40 8 12 10
10 10 -10 0 -18 21 -46 73 -98 40 -39 77 -72 82 -72 20 0 165 142 165 162 0
10 4 16 10 13 5 -3 32 16 60 44 48 48 50 52 50 108 l1 58 17 -27 c9 -16 19
-28 22 -28 3 0 14 15 24 33 15 24 21 57 24 133 4 93 2 103 -14 108 -11 4 -30
15 -44 26 l-25 19 40 -9 c22 -5 41 -7 43 -6 2 2 -40 32 -92 66 -92 60 -94 63
-85 88 16 43 50 95 77 120 l25 22 -32 0 c-36 0 -112 -30 -93 -37 17 -6 15 -30
-3 -37 -20 -7 -35 24 -36 76 l0 43 -17 -44 c-20 -52 -47 -74 -62 -51 -7 10 -5
18 5 26 13 10 12 14 -5 29 -11 10 -25 33 -32 51 -14 41 -24 43 -32 8z m-23
-360 c31 -15 36 -15 65 0 42 22 54 20 86 -9 38 -35 34 -61 -13 -84 -21 -11
-41 -28 -45 -37 -5 -14 -9 -14 -23 -3 -17 13 -17 12 0 -13 9 -15 17 -34 17
-43 0 -9 5 -13 10 -10 6 3 10 15 10 26 0 10 5 19 12 19 7 0 22 12 34 27 22 28
22 28 43 9 29 -26 26 -42 -10 -75 -27 -25 -30 -32 -24 -65 7 -33 5 -36 -16
-37 l-24 -2 23 -4 c29 -6 23 -29 -6 -25 -16 2 -20 -1 -16 -12 8 -21 -4 -20
-44 4 -39 24 -38 37 6 66 37 26 31 39 -9 19 -35 -19 -53 -19 -88 0 -40 20 -46
7 -9 -19 44 -29 45 -42 6 -66 -40 -24 -52 -25 -44 -4 4 11 0 14 -16 12 -11 -2
-23 3 -25 10 -3 7 5 13 19 13 l23 2 -23 4 c-21 4 -23 8 -17 40 6 31 3 39 -24
64 -36 33 -39 49 -10 75 21 19 21 19 43 -9 12 -15 27 -27 34 -27 7 0 12 -9 12
-19 0 -11 5 -23 10 -26 6 -3 10 1 10 10 0 9 8 28 17 43 17 25 17 26 0 13 -14
-11 -18 -11 -23 3 -4 9 -24 26 -45 37 -47 23 -51 49 -13 84 32 29 42 30 87 9z"/>
</g>
</svg>
